<svg id="Layer_1" data-name="Layer 1" xmlns="http://www.w3.org/2000/svg" viewBox="0 0 28 28"><title>credit</title><g id="_Group_2" data-name=" Group 2"><path id="_Compound_Path_2" data-name=" Compound Path 2" d="M14,1.1A12.88,12.88,0,1,1,5,4.88,12.88,12.88,0,0,1,14,1.1M14,0A14,14,0,1,0,28,14,14,14,0,0,0,14,0h0Z"/></g><path d="M14,3A11,11,0,1,0,25,14,11,11,0,0,0,14,3ZM11.05,8.7A2.76,2.76,0,0,1,14,5.75,2.82,2.82,0,0,1,17,8.7v4.71a2.82,2.82,0,0,1-3,2.95,2.76,2.76,0,0,1-2.95-2.95V8.7Zm8.25,4.12v0.59h0a5.3,5.3,0,0,1-4.71,5.27v1.83a4.5,4.5,0,0,1,3.54,1.74H9.88a4.5,4.5,0,0,1,3.54-1.74V18.68A5.3,5.3,0,0,1,8.7,13.41h0V12.82H5.75V11.64H8.7V9.29H9.88v4.12A3.94,3.94,0,0,0,14,17.54a3.94,3.94,0,0,0,4.13-4.13V9.29H19.3v2.36h2.95v1.18H19.3Z"/></svg>
