<svg id="Layer_1" data-name="Layer 1" xmlns="http://www.w3.org/2000/svg" viewBox="0 0 28 28"><title>gift</title><path d="M22.74,18.06l-2.61-.44-1.23,2L14.6,12H13.4L9.1,19.62l-1.23-2-2.61.47L8.69,12H2V28H26V12H19.31ZM22.5,6c0.37,0,.59-1.14.59-2C22.84,0,18.58,0,18.58,0,16.47,0,15,1.69,14,3.53,13,1.69,11.53,0,9.42,0c0,0-4.26,0-4.52,4,0,0.82.22,2,.59,2H0v5H28V6H22.5ZM10.91,6A7,7,0,0,1,8,5.46,1.38,1.38,0,0,1,7,4.13,2.34,2.34,0,0,1,9.44,2c1.5,0,2.71,2,3.46,4h-2ZM20,5.45A7,7,0,0,1,17.09,6h-2c0.75-2,2-4,3.47-4A2.34,2.34,0,0,1,21,4.13a1.37,1.37,0,0,1-1,1.32"/></svg>