<svg id="Layer_1" xmlns="http://www.w3.org/2000/svg" viewBox="0 0 160.6 48.8"><style>.st0{fill:#FEF1DF;}</style><path class="st0" d="M15.3 47.7c-1.5-2.4-2.9-5-3.6-6 1.6-.7 2.4-2.4 2.4-4.7 0-3.1-2.1-5.8-6-5.8H.2c-.1 0-.2 0-.2.2v16.8c0 .3 0 .2.2.2h4.2c.2 0 .2 0 .2-.2v-4.8l2.9-.1s1.9 2.9 2.7 4.6c.2.5.3.5.5.5h4.5c.3 0 .4-.2.1-.7zm-6-10.4c0 1.5-.8 2.5-2.1 2.5l-2.5.1v-5h2.5c1.4 0 2.1 1.1 2.1 2.4zm26 10.7v-3.3c0-.3 0-.3-.3-.3l-7.5.1v-3h7.1c.2 0 .3-.1.3-.4V38c0-.3 0-.4-.3-.4h-7.1v-2.9l7.3.1c.2 0 .3-.1.3-.4v-3.1c0-.3 0-.3-.3-.3H23.3c-.3 0-.2 0-.2.3v16.6c0 .3 0 .4.3.4H35c.2.1.3 0 .3-.3zm22.5-10.2c0-3.9-2.3-6.6-6.1-6.6h-7.6c-.1 0-.2 0-.2.2v16.8c0 .3 0 .2.2.2h4.1c.2 0 .2 0 .2-.2v-4.1s2.9 0 3.6-.1c3.3-.4 5.8-2.1 5.8-6.2zm-4.7-.2c0 1.4-.7 2.6-2.5 2.6l-2.1.1v-5.4h2.1c1.5 0 2.5 1 2.5 2.7zm26.7 4.5V31.3c0-.2 0-.2-.1-.2h-4.2c-.2 0-.2 0-.2.2v11.3c0 1.7-1.4 2.4-2.7 2.4-1.2 0-2.7-.7-2.7-2.4V31.3c0-.2 0-.2-.2-.2h-4.3c-.1 0-.1 0-.1.2v10.6c0 4.2 2.3 6.9 7.2 6.9 5.2 0 7.3-2.6 7.3-6.7zm23.9 1.6c0-2-1.3-4-3.5-4.2 2-.6 3.1-2 3.1-3.8 0-2.8-1.9-4.5-5-4.5h-8.9c-.2 0-.3.1-.3.3v16.6c0 .3 0 .4.2.4h9.6c2.9-.1 4.8-2 4.8-4.8zm-5.1-7.4c0 1-.6 1.6-1.6 1.6h-3.4v-3.3H97c1 .1 1.6.7 1.6 1.7zm.3 6.7c0 1.2-.7 1.9-1.8 1.9h-3.7v-3.7h3.7c1.1-.1 1.8.7 1.8 1.8zm24.3 5.2v-3.7c0-.2 0-.3-.2-.3l-6.4.1v-13c0-.2 0-.2-.2-.2h-4.1c-.2 0-.2 0-.2.2v16.8c0 .3 0 .2.2.2h10.8c.1.1.1.1.1-.1zm12.1 0V31.4c0-.2 0-.2-.3-.2h-4.2c-.2 0-.2 0-.2.2v16.8c0 .3 0 .2.2.2h4.2c.2 0 .3 0 .3-.2zm25.3-4.6c.1-.2 0-.3-.2-.3l-3.8-1c-.2-.1-.2 0-.3.2-.6 1.3-1.8 2.1-3.6 2.1-2.1 0-4.2-1.5-4.2-4.6 0-2.7 1.6-4.7 4.2-4.7 1.8 0 3 .8 3.7 2.3.1.1.1.2.2.1l3.8-1.5c.1-.1.2-.2.1-.5-1.1-2.6-3.7-4.9-7.9-4.9-5 0-8.9 3.8-8.9 9.1 0 4.9 3.6 9 9 9 3.9-.1 6.7-2.6 7.9-5.3zM46.7.8c.2-.4.2-.5-.2-.5h-3.9c-.3 0-.4.1-.5.3-.7 2.1-3.5 9.3-3.5 9.3S35.5 2.7 34.7.5c-.1-.2-.2-.2-.5-.2h-4.3c-.3 0-.3.1-.1.5 3.1 6.7 5.4 11.3 8.3 17 .1.2.2.3.3.3.1 0 .3-.2.4-.4C41.9 11 43.4 7.8 46.7.8zM70.3 9c0-5-3.9-9-9-9s-9 4-9 9 3.9 9 9 9 9-4 9-9zm-4.8 0c0 2.6-1.6 4.7-4.3 4.7-2.7 0-4.3-2-4.3-4.7 0-2.6 1.5-4.7 4.3-4.7 2.7 0 4.3 2.1 4.3 4.7zm17.8 8.4V.6c0-.2 0-.2-.3-.2h-4.2c-.2 0-.2 0-.2.2v16.8c0 .3 0 .2.2.2H83c.3 0 .3 0 .3-.2zm25.3-4.6c.1-.2 0-.3-.2-.3l-3.8-1c-.2-.1-.2.1-.3.2-.6 1.3-1.8 2.1-3.6 2.1-2.1 0-4.2-1.4-4.2-4.6 0-2.7 1.6-4.7 4.2-4.7 1.8 0 3 .8 3.7 2.3.1.1.1.2.2.1l3.8-1.5c.1-.1.2-.2.1-.5-1.1-2.6-3.7-4.9-7.9-4.9-5 0-8.9 3.8-8.9 9.1 0 4.9 3.6 9 9 9 3.9-.1 6.8-2.6 7.9-5.3zm20 4.4v-3.3c0-.3 0-.3-.3-.3l-7.5.1v-2.9h7.1c.2 0 .3-.1.3-.4V7.3c0-.3 0-.4-.3-.4h-7.1V4.1l7.3.1c.2 0 .3-.1.3-.4V.7c0-.3 0-.3-.3-.3h-11.5c-.3 0-.2 0-.2.3v16.6c0 .3 0 .4.3.4h11.6c.3-.1.3-.2.3-.5z"/></svg>