<svg xmlns="http://www.w3.org/2000/svg" viewBox="0 0 28 28"><path d="M25.153 0c.31 0 .552.346.552.346s5.872 10.63-1.17 13.482l-3.826-1.392c-.613-1.307-1.625-5.283 1.75-7.426 0 0 2.66-1.893 2.175-4.323 0 0-.067-.443.328-.64.065-.033.13-.047.19-.047M13.92 1.704c1.874 0 3.63.605 3.945 2.662.276 1.796-1.99 4.29-1.865 7.134.054 1.235 1.873 2.42 3.04 2.623l-3.916 12-1.213.68C12.333 27.48 10.39 28 8.504 28c-1.534 0-3.03-.343-4.263-1.226C-1.054 22.984-.798 14.65 1.784 9.35c1.7-3.497 4.732-5.878 8.42-7.03.978-.308 2.377-.616 3.715-.616M12 16c1.104 0 2-.895 2-2 0-1.104-.896-2-2-2-1.105 0-2 .896-2 2 0 1.105.896 2 2 2m8.36-2.608l3.826 1.393L18.81 28l-2.867-1.044 4.418-13.564"/></svg>