<svg xmlns="http://www.w3.org/2000/svg" viewBox="-625 1487 28 28"><path d="M-625 1509h12v6h-12zM-609 1500.5c0-2.3 1.2-4.3 3.1-5.5h-11.5c-3.1 0-5.6 2.5-5.6 5.6v7.4h14v-7.5zm-11 5.5c-.6 0-1-.4-1-1s.4-1 1-1 1 .4 1 1-.4 1-1 1m0-3c-.6 0-1-.4-1-1s.4-1 1-1 1 .4 1 1-.4 1-1 1m4 3c-.6 0-1-.4-1-1s.4-1 1-1 1 .4 1 1-.4 1-1 1m0-3c-.6 0-1-.4-1-1s.4-1 1-1 1 .4 1 1-.4 1-1 1m4 3c-.6 0-1-.4-1-1s.4-1 1-1 1 .4 1 1-.4 1-1 1m0-3c-.6 0-1-.4-1-1s.4-1 1-1 1 .4 1 1-.4 1-1 1M-602 1487h-15v7h15v-7zm-2 5h-11v-3h11v3z"/><path d="M-601 1487v8h-1.5c-3 0-5.5 2.5-5.5 5.5v8.5h-4v6h15v-28h-4z"/></svg>