<svg xmlns="http://www.w3.org/2000/svg" xmlns:xlink="http://www.w3.org/1999/xlink" viewBox="0 0 28 28"><defs><path id="a" d="M0 0h28v28H0z"/></defs><clipPath id="b"><use xlink:href="#a" overflow="visible"/></clipPath><path clip-path="url(#b)" d="M14 10.75c-3.723 0-6.75 3.03-6.75 6.752 0 3.72 3.027 6.75 6.75 6.75 3.722 0 6.75-3.03 6.75-6.75 0-3.723-3.028-6.75-6.75-6.75M21 3L19 0H9L7 3H0v21h6c1.96 2.323 4.73 4 8 4 3.27 0 6.043-1.677 8-4h6V3h-7zm-7 23c-4.688 0-8.5-3.814-8.5-8.5S9.312 9 14 9c4.69 0 8.5 3.815 8.5 8.502s-3.81 8.5-8.5 8.5m9.562-17.44c-.588.585-1.535.584-2.12-.002-.59-.586-.59-1.536-.003-2.12.585-.587 1.532-.585 2.12 0 .586.588.586 1.537.002 2.122"/></svg>