<svg xmlns="http://www.w3.org/2000/svg" xmlns:xlink="http://www.w3.org/1999/xlink" viewBox="0 0 28 28"><defs><path id="a" d="M0 0h28v28H0z"/></defs><clipPath id="b"><use xlink:href="#a" overflow="visible"/></clipPath><path clip-path="url(#b)" d="M7 12c-1.104 0-2 .896-2 2v12c0 1.105.896 2 2 2 1.105 0 2-.895 2-2V14c0-1.104-.895-2-2-2m19 4.02V7c0-.07-.102-7-9-7h-6C2.103 0 2 6.93 2 7v9.02c-1.21.914-2 2.35-2 3.98 0 2.42 1.72 4.436 4 4.9V7c0-.204.08-5 7-5h6c6.738 0 6.994 4.494 7 5v17.9c2.283-.464 4-2.48 4-4.9 0-1.63-.79-3.066-2-3.98M21 12c-1.104 0-2 .896-2 2v12c0 1.105.896 2 2 2 1.105 0 2-.895 2-2V14c0-1.104-.895-2-2-2"/></svg>