<svg xmlns="http://www.w3.org/2000/svg" xmlns:xlink="http://www.w3.org/1999/xlink" viewBox="0 0 28 28"><defs><path id="a" d="M0 0h28v28H0z"/></defs><clipPath id="b"><use xlink:href="#a" overflow="visible"/></clipPath><path clip-path="url(#b)" d="M21.586.224l-5.644 5.938c-.458-.148-.948-.23-1.458-.23-.34 0-.673.04-.995.106L7.9.16c-.193-.204-.52-.215-.73-.024-.207.19-.22.513-.025.718l5.28 5.648C11.394 7 10.584 8 10.158 9H0v19h22V9h-3.188c-.373-1-1.037-1.776-1.88-2.29L22.343.966c.195-.205.183-.55-.028-.74-.206-.193-.533-.205-.73 0M18 25H3V12h15v13zm5 3h5V9h-5v19z"/></svg>