<svg xmlns="http://www.w3.org/2000/svg" xmlns:xlink="http://www.w3.org/1999/xlink" viewBox="0 0 28 28"><defs><path id="a" d="M0 0h28v28H0z"/></defs><clipPath id="b"><use xlink:href="#a" overflow="visible"/></clipPath><path clip-path="url(#b)" d="M27.393 24.463l-6.428-6.428-.03.03C22.232 16.204 23 13.943 23 11.5 23 5.15 17.852 0 11.5 0 5.15 0 0 5.15 0 11.5S5.15 23 11.5 23c2.443 0 4.704-.768 6.566-2.066l-.03.03 6.428 6.43c.403.404.934.606 1.465.606.53 0 1.058-.202 1.463-.607.81-.81.81-2.122 0-2.93M11.5 20C6.813 20 3 16.187 3 11.5 3 6.814 6.813 3 11.5 3S20 6.814 20 11.5c0 4.687-3.813 8.5-8.5 8.5"/></svg>