<svg xmlns="http://www.w3.org/2000/svg" xmlns:xlink="http://www.w3.org/1999/xlink" viewBox="0 0 28 28"><defs><path id="a" d="M0 0h28v28H0z"/></defs><clipPath id="b"><use xlink:href="#a" overflow="visible"/></clipPath><path clip-path="url(#b)" d="M0 21c0 4 3 7 3 7l4.023-4.023-1.466-8.74C4.177 15.993 0 18.493 0 21m11 4l-2 3h10l-2-3h-6zm11.45-9.76l-1.438 8.77L25 28s3-3 3-7c0-2.503-4.164-5-5.55-5.76M14 0c-2.424.114-9.24 4.484-7.803 13.02L8.043 24H20l1.803-10.98C23.24 4.484 16.423.115 14 0m0 18c-1.38 0-2.5-1.12-2.5-2.5 0-1.037.63-1.924 1.527-2.303.3-.128.63-.197.973-.197 1.38 0 2.5 1.12 2.5 2.5S15.38 18 14 18m0-8c-1.38 0-2.5-1.12-2.5-2.5 0-1.037.63-1.924 1.527-2.303.3-.128.63-.197.973-.197 1.38 0 2.5 1.12 2.5 2.5S15.38 10 14 10"/></svg>